/* XPM */
static char * BasicDarkWall_xpm[] = {
"64 64 3 1",
" 	c #606060",
".	c #000000",
"+	c #A8A8A8",
"            ....    ++++++++++++++++++++++++++++++++++++++++    ",
"            ....    ++++++++++++++++++++++++++++++++++++++++    ",
"            ....    ++++++++++++++++++++++++++++++++++++++++    ",
"            ....    ++++++++++++++++++++++++++++++++++++++++    ",
"                ++++++++++++                                    ",
"                ++++++++++++                                    ",
"                ++++++++++++                                    ",
"                ++++++++++++                                    ",
"++++++++    ....++++    ++++        ++++    ++++            ++++",
"++++++++    ....++++    ++++        ++++    ++++            ++++",
"++++++++    ....++++    ++++        ++++    ++++            ++++",
"++++++++    ....++++    ++++        ++++    ++++            ++++",
"            ....++++    ++++    ++++                ++++        ",
"            ....++++    ++++    ++++                ++++        ",
"            ....++++    ++++    ++++                ++++        ",
"            ....++++    ++++    ++++                ++++        ",
"            ....++++    ++++....++++....        ++++    ....    ",
"            ....++++    ++++....++++....        ++++    ....    ",
"            ....++++    ++++....++++....        ++++    ....    ",
"            ....++++    ++++....++++....        ++++    ....    ",
"    ....    ....            ....    ....            ....        ",
"    ....    ....            ....    ....            ....        ",
"    ....    ....            ....    ....            ....        ",
"    ....    ....            ....    ....            ....        ",
"................................................    ............",
"................................................    ............",
"................................................    ............",
"................................................    ............",
"++++++++++++++++++++            ....++++            ++++++++....",
"++++++++++++++++++++            ....++++            ++++++++....",
"++++++++++++++++++++            ....++++            ++++++++....",
"++++++++++++++++++++            ....++++            ++++++++....",
"++++....                            ++++    ....            ....",
"++++....                            ++++    ....            ....",
"++++....                            ++++    ....            ....",
"++++....                            ++++    ....            ....",
"    ........        ++++............            ....    ........",
"    ........        ++++............            ....    ........",
"    ........        ++++............            ....    ........",
"    ........        ++++............            ....    ........",
"....................    ............    ........................",
"....................    ............    ........................",
"....................    ............    ........................",
"....................    ............    ........................",
"        ....    ....    ....    ....................            ",
"        ....    ....    ....    ....................            ",
"        ....    ....    ....    ....................            ",
"        ....    ....    ....    ....................            ",
"........    ............    ........            ....    ........",
"........    ............    ........            ....    ........",
"........    ............    ........            ....    ........",
"........    ............    ........            ....    ........",
"....................................    ........................",
"....................................    ........................",
"....................................    ........................",
"....................................    ........................",
"        ........            ....    ........            ........",
"        ........            ....    ........            ........",
"        ........            ....    ........            ........",
"        ........            ....    ........            ........",
"........        ........................    ............        ",
"........        ........................    ............        ",
"........        ........................    ............        ",
"........        ........................    ............        "};
