/* XPM */
static char * skullWall_xpm[] = {
"64 64 4 1",
" 	c #A8A8A8",
".	c #000000",
"+	c #606060",
"@	c #F8F8F8",
"            ....++++                                        ++++",
"            ....++++                                        ++++",
"            ....++++                                        ++++",
"            ....++++                                        ++++",
"++++++++++++++++                    ++++++++++++        ++++++++",
"++++++++++++++++                    ++++++++++++        ++++++++",
"++++++++++++++++                    ++++++++++++        ++++++++",
"++++++++++++++++                    ++++++++++++        ++++++++",
"        ++++....        ++++            ++++++++++++++++        ",
"        ++++....        ++++            ++++++++++++++++        ",
"        ++++....        ++++            ++++++++++++++++        ",
"        ++++....        ++++            ++++++++++++++++        ",
"++++++++++++....    ++++    ++++++++++++++++++++++++    ++++++++",
"++++++++++++....    ++++    ++++++++++++++++++++++++    ++++++++",
"++++++++++++....    ++++    ++++++++++++++++++++++++    ++++++++",
"++++++++++++....    ++++    ++++++++++++++++++++++++    ++++++++",
"++++    ....++++    ++++++++++++++++....++++++++++++    ++++....",
"++++    ....++++    ++++++++++++++++....++++++++++++    ++++....",
"++++    ....++++    ++++++++++++++++....++++++++++++    ++++....",
"++++    ....++++    ++++++++++++++++....++++++++++++    ++++....",
"    ....++++....++++++++@@@@@@@@    ++++........++++    ....++++",
"    ....++++....++++++++@@@@@@@@    ++++........++++    ....++++",
"    ....++++....++++++++@@@@@@@@    ++++........++++    ....++++",
"    ....++++....++++++++@@@@@@@@    ++++........++++    ....++++",
"....    ............    ....    ....    ++++........++++........",
"....    ............    ....    ....    ++++........++++........",
"....    ............    ....    ....    ++++........++++........",
"....    ............    ....    ....    ++++........++++........",
"                ++++........    ........++++....++++        ....",
"                ++++........    ........++++....++++        ....",
"                ++++........    ........++++....++++        ....",
"                ++++........    ........++++....++++        ....",
"    ++++++++++++++++@@@@    ....        ++++....++++++++++++....",
"    ++++++++++++++++@@@@    ....        ++++....++++++++++++....",
"    ++++++++++++++++@@@@    ....        ++++....++++++++++++....",
"    ++++++++++++++++@@@@    ....        ++++....++++++++++++....",
"++++++++++++++++....++++            ++++........++++++++++++....",
"++++++++++++++++....++++            ++++........++++++++++++....",
"++++++++++++++++....++++            ++++........++++++++++++....",
"++++++++++++++++....++++            ++++........++++++++++++....",
"........++++............++++....++++............................",
"........++++............++++....++++............................",
"........++++............++++....++++............................",
"........++++............++++....++++............................",
"++++++++++++++++....++++............................++++++++++++",
"++++++++++++++++....++++............................++++++++++++",
"++++++++++++++++....++++............................++++++++++++",
"++++++++++++++++....++++............................++++++++++++",
"....++++............++++++++++++....++++++++........++++++++++++",
"....++++............++++++++++++....++++++++........++++++++++++",
"....++++............++++++++++++....++++++++........++++++++++++",
"....++++............++++++++++++....++++++++........++++++++++++",
"....++++................++++........................++++........",
"....++++................++++........................++++........",
"....++++................++++........................++++........",
"....++++................++++........................++++........",
"++++++++........++++....++++....++++........++++++++....++++....",
"++++++++........++++....++++....++++........++++++++....++++....",
"++++++++........++++....++++....++++........++++++++....++++....",
"++++++++........++++....++++....++++........++++++++....++++....",
"........++++++++++++++++............++++++++................++++",
"........++++++++++++++++............++++++++................++++",
"........++++++++++++++++............++++++++................++++",
"........++++++++++++++++............++++++++................++++"};
