/* XPM */
static char * better_wall_xpm[] = {
"32 32 4 1",
" 	c #63AB3F",
".	c #3B7D4F",
"+	c #283540",
"@	c #2F5753",
" . +++++         .    +++++     ",
"  +     +  .         +     +    ",
" +  ...  +         .+  ...  +   ",
"+  .+++.  +        +  .+++.  +  ",
"+ .+ + +. +      . + .+ + +. +  ",
"+ .+ .++. +       .+ .+ .++. +  ",
"+ .+  ..  +        + .+  ..  +  ",
"+ .++    +    .    + .++    + . ",
"+  .+++++ +        +  .+++++ +  ",
" +  .+    ++        +  .+    ++ ",
". +  .+   +.+   .    +  .+   +.+",
"   +  .+ +. +. .      +  .+ +. +",
". .+.  .+. +  .@. .   +.  .+. +@",
"@.+..  .+. +..@@@.   +..  .+. +@",
"      .               .         ",
"      +++++          +++++      ",
" .   +     +     .  +     +     ",
"    +  ...  +      +  ...  +    ",
"   +  .+++.  +    +  .+++.  +   ",
"   + .+ + +. +    + .+ + +. +   ",
" . + .+ .++. +   .+ .+ .++. +   ",
"  .+ .+  ..  +    + .+  ..  +   ",
"   + .++    +     + .++    +    ",
"   +  .+++++ +.   +  .+++++ + . ",
"    +  .+    ++    +  .+    ++  ",
"     +  .+   +.+    +  .+   +.+ ",
".     +  .+ +. +.    +  .+ +. + ",
"      +.  .+. +.     +.  .+. + .",
". .  +..  .+. +@. . +..  .+. +.@",
"@.          ..@@@.          ..@@",
"      .               .         ",
"                                "};
